<?xml version="1.0" encoding="iso-8859-1"?>
<!-- Generator: Adobe Illustrator 19.0.0, SVG Export Plug-In . SVG Version: 6.00 Build 0)  -->
<svg version="1.1" id="Layer_1" xmlns="http://www.w3.org/2000/svg" xmlns:xlink="http://www.w3.org/1999/xlink" x="0px" y="0px"
	 viewBox="0 0 512 512" style="enable-background:new 0 0 512 512;" xml:space="preserve">
<path style="fill:#E52E66;" d="M355.785,146.024c-6.059,0-10.971-4.912-10.971-10.971V93.675c0-18.38-14.954-33.332-33.332-33.332
	H200.513c-18.38,0-33.332,14.954-33.332,33.332v41.378c0,6.059-4.912,10.971-10.971,10.971c-6.059,0-10.971-4.912-10.971-10.971
	V93.675c0-30.479,24.796-55.275,55.275-55.275H311.48c30.479,0,55.275,24.796,55.275,55.275v41.378
	C366.756,141.113,361.843,146.024,355.785,146.024z"/>
<path style="fill:#F74F7B;" d="M512,177.382v248.665c0,26.269-21.295,47.553-47.553,47.553H47.553C21.285,473.6,0,452.315,0,426.047
	V177.382c0-26.258,21.285-47.553,47.553-47.553h416.893C490.705,129.829,512,151.124,512,177.382z"/>
<path style="fill:#E52E66;" d="M347.951,473.6H47.553C21.285,473.6,0,452.315,0,426.047V177.382
	c0-26.258,21.285-47.553,47.553-47.553C47.553,129.829-9.404,432.327,347.951,473.6z"/>
<circle style="fill:#FFFFFF;" cx="256" cy="301.714" r="117.029"/>
<polygon style="fill:#F74F7B;" points="320.781,277.159 280.552,277.159 280.552,236.931 231.442,236.931 231.442,277.159 
	191.213,277.159 191.213,326.269 231.442,326.269 231.442,366.498 280.552,366.498 280.552,326.269 320.781,326.269 "/>
<g>
</g>
<g>
</g>
<g>
</g>
<g>
</g>
<g>
</g>
<g>
</g>
<g>
</g>
<g>
</g>
<g>
</g>
<g>
</g>
<g>
</g>
<g>
</g>
<g>
</g>
<g>
</g>
<g>
</g>
</svg>
